SplineFontDB: 3.0
FontName: Valley
FullName: Valley
FamilyName: Valley
Weight: Regular
Copyright: Created by trashman with FontForge 2.0 (http://fontforge.sf.net)
UComments: "Scan 6400, cut 1100, scale 89%" 
Version: 001.000
ItalicAngle: 0
UnderlinePosition: -100
UnderlineWidth: 50
Ascent: 630
Descent: 370
LayerCount: 3
Layer: 0 0 "Back"  1
Layer: 1 0 "Fore"  0
Layer: 2 0 "backup"  0
NeedsXUIDChange: 1
XUID: [1021 658 797806517 11561335]
OS2Version: 0
OS2_WeightWidthSlopeOnly: 0
OS2_UseTypoMetrics: 1
CreationTime: 1286180940
ModificationTime: 1289430862
OS2TypoAscent: 0
OS2TypoAOffset: 1
OS2TypoDescent: 0
OS2TypoDOffset: 1
OS2TypoLinegap: 0
OS2WinAscent: 0
OS2WinAOffset: 1
OS2WinDescent: 0
OS2WinDOffset: 1
HheadAscent: 0
HheadAOffset: 1
HheadDescent: 0
HheadDOffset: 1
OS2Vendor: 'PfEd'
MarkAttachClasses: 1
DEI: 91125
Encoding: UnicodeBmp
UnicodeInterp: none
NameList: Adobe Glyph List
DisplaySize: -48
AntiAlias: 1
FitToEm: 1
WidthSeparation: 40
WinInfo: 99 11 5
BeginPrivate: 6
BlueValues 7 [-23 0]
BlueScale 8 0.039625
StdHW 4 [37]
StemSnapH 35 [23 27 31 33 37 42 46 54 79 88 118]
StdVW 4 [80]
StemSnapV 4 [80]
EndPrivate
BeginChars: 65536 65

StartChar: a
Encoding: 97 97 0
Width: 416
VWidth: 0
Flags: HW
HStem: -12 38<125.579 217.5 355.733 395.995> 198 28<148.68 273.442> 359 29<138.051 242.065>
VStem: 19 88<40.6778 165.139> 47 72<268.853 342.092> 274 75<65.242 191.005 217.057 331.311>
LayerCount: 3
Fore
SplineSet
22 99 m 0xf4
 22 181 97 224 181 224 c 0
 214 224 249 216 263 212 c 0
 274 209 274 209 274 221 c 0
 274 317 256 359 188 359 c 0
 143 359 122 338 119 313 c 0
 115 284 108 265 79 265 c 0
 62 265 47 276 47 297 c 0
 47 347 123 388 190 388 c 0
 296 388 345 347 345 249 c 0
 345 193 344 130 344 110 c 0
 344 56 347 25 376 25 c 0
 391 25 393 20 393 10 c 0
 393 1 393 -6 386 -6 c 0
 330 -6 278 -6 272 44 c 0
 271 54 270 54 264 47 c 0
 249 29 212 -12 145 -12 c 0
 80 -12 22 32 22 99 c 0xf4
263 183 m 0
 246 189 219 194 198 194 c 0
 148 194 104 166 104 106 c 0
 104 58 120 26 168 26 c 0
 224 26 272 73 272 117 c 2
 272 170 l 2
 272 178 272 180 263 183 c 0
EndSplineSet
EndChar

StartChar: b
Encoding: 98 98 1
Width: 477
VWidth: 0
Flags: HW
HStem: -11 41<214.326 329.357> -4 21G<96.5 149.5> 357 31<226.385 325.554> 560 32<19.0261 92.1874>
VStem: 90 70<-4 56.971> 96 75<72.75 301.471 326.002 559.999> 369 88<89.9717 297.069>
LayerCount: 3
Fore
SplineSet
143 -8 m 2x7a
 103 -8 l 2
 90 -8 89 2 89 10 c 0x7a
 89 22 96 54 96 374 c 0
 96 422 95 538 95 552 c 0
 95 558 90 561 81 561 c 0
 42 561 31 560 22 560 c 0
 18 560 17 569 17 577 c 0
 17 587 17 595 25 595 c 0
 34 595 60 592 128 592 c 2
 161 592 l 2
 174 592 175 589 175 579 c 2
 169 343 l 2
 169 334 170 331 171 331 c 0
 173 331 207 390 291 390 c 0
 388 390 455 312 455 200 c 0
 455 54 367 -11 282 -11 c 0xb6
 197 -11 167 58 164 58 c 0
 162 58 158 20 158 6 c 0
 158 -8 152 -8 143 -8 c 2x7a
165 155 m 2
 165 86 206 26 266 26 c 0
 351 26 369 89 369 201 c 0
 369 272 356 359 278 359 c 0
 200 359 165 286 165 192 c 2xb6
 165 155 l 2
EndSplineSet
EndChar

StartChar: c
Encoding: 99 99 2
Width: 383
VWidth: -4
Flags: HW
HStem: -15 37<163.525 276.681> 358 28<164.03 254.895>
VStem: 19 87<90.0698 280.939> 264 79<286.914 348.547>
LayerCount: 3
Fore
SplineSet
19 178 m 0
 19 293 104 386 209 386 c 0
 265 386 342 355 342 305 c 0
 342 286 328 276 315 276 c 0
 281 276 274 304 263 328 c 0
 257 341 241 355 213 355 c 0
 128 355 105 297 105 185 c 0
 105 110 127 20 214 20 c 0
 302 20 320 100 336 116 c 0
 337 117 339 118 341 118 c 0
 349 118 361 107 361 103 c 0
 361 77 308 -15 215 -15 c 0
 103 -15 19 67 19 178 c 0
EndSplineSet
EndChar

StartChar: d
Encoding: 100 100 3
Width: 485
VWidth: 0
Flags: HW
HStem: -13 33<384.723 464.889> -7 35<149.886 251.086> 357 30<155.829 247.779> 554 34<224.001 308.938>
VStem: 19 91<91.2221 288.477> 309 82<323.686 554.994> 318 64<21.0695 54 99.4013 277.682>
LayerCount: 3
Fore
SplineSet
423 20 m 2xba
 452 20 l 2
 463 20 465 15 465 8 c 0
 465 -2 464 -13 452 -13 c 0
 421 -13 360 -10 329 -10 c 0
 323 -10 318 -6 318 1 c 2
 318 54 l 2xba
 318 73 319 71 308 56 c 0
 287 26 247 -7 183 -7 c 0
 76 -7 19 94 19 192 c 0
 19 300 91 387 199 387 c 0
 249 387 281 354 299 329 c 0
 307 317 312 305 312 317 c 0
 312 372 310 461 309 533 c 0x7c
 309 553 306 555 286 555 c 2
 234 554 l 2
 225 554 224 561 224 571 c 0
 224 579 226 588 238 588 c 2
 382 587 l 2x7a
 390 587 391 575 391 571 c 0x7c
 386 443 382 255 382 108 c 2
 382 77 l 2
 382 26 383 20 423 20 c 2xba
110 201 m 0
 110 125 117 28 198 28 c 0x78
 273 28 315 112 315 182 c 0
 315 264 278 357 199 357 c 0
 130 357 110 279 110 201 c 0
EndSplineSet
EndChar

StartChar: e
Encoding: 101 101 4
Width: 389
VWidth: 3
Flags: HW
HStem: -15 36<166.706 281.859> 190 30<109.002 285.998> 357 34<152.323 249.058>
VStem: 20 89<93.7485 291.639> 286 87<200.5 302.354>
LayerCount: 3
Fore
SplineSet
218 -13 m 0
 100 -13 19 81 19 188 c 0
 19 325 113 391 202 391 c 0
 276 391 371 336 371 207 c 0
 371 198 368 193 349 193 c 2
 119 193 l 2
 107 193 107 187 107 175 c 0
 107 66 160 25 218 25 c 0
 307 25 331 100 348 100 c 0
 355 100 367 91 367 82 c 0
 367 58 304 -13 218 -13 c 0
288 231 m 0
 288 273 279 357 198 357 c 0
 141 357 109 304 109 230 c 0
 109 224 109 220 120 220 c 2
 279 220 l 2
 285 220 288 223 288 231 c 0
EndSplineSet
EndChar

StartChar: f
Encoding: 102 102 6
Width: 342
VWidth: 0
Flags: HW
HStem: -6.5856 30.4584<19.0277 105.95 193.361 272.449> 2.4696 25.5192<41.1191 107.67 191.695 253.632> 332.573 30.4584<25.5842 110.37 185.281 292.294> 565.538 29.6352<198.885 249.148>
VStem: 110.37 74.9112<30.3474 333.396 362.208 524.164> 252.783 68.3256<491.076 563.665>
LayerCount: 3
Fore
SplineSet
290 482 m 0
 263 482 254 506 251 534 c 0x7c
 249 553 244 565 225 565 c 0
 189 565 188 450 188 397 c 2
 188 385 l 2
 188 368 192 367 205 367 c 0
 215 367 254 368 270 368 c 0
 289 368 292 365 292 352 c 0
 292 340 292 333 273 333 c 0
 254 333 213 335 203 335 c 4
 188 335 187 333 187 324 c 0
 186 286 186 116 186 50 c 0
 186 36 189 29 202 29 c 0
 238 29 254 31 263 31 c 0
 275 31 276 24 276 14 c 0
 276 -1 271 -3 259 -3 c 0xbc
 243 -3 224 0 148 0 c 0
 64 0 52 -3 37 -3 c 0
 21 -3 21 3 21 15 c 0
 21 25 25 31 34 31 c 0
 44 31 57 29 88 29 c 0
 104 29 107 41 107 50 c 0
 107 60 110 309 110 318 c 0
 110 333 109 335 97 335 c 0
 88 335 53 333 43 333 c 0
 29 333 27 339 27 352 c 0
 27 365 33 368 41 368 c 0
 53 368 90 367 99 367 c 0
 108 367 112 368 112 386 c 2
 112 426 l 2
 112 594 224 598 242 598 c 0
 283 598 323 567 323 522 c 0
 323 492 310 482 290 482 c 0
EndSplineSet
EndChar

StartChar: g
Encoding: 103 103 7
Width: 481
VWidth: 0
Flags: HW
HStem: -249 30<131.616 291.984> -40 64<111.42 334.276> 102 25<167.692 252.319> 340 34<362.807 426> 359 32<170.123 257.597>
VStem: 19 60<-183.671 -87.5795> 25 31<45.7068 109.957> 62 75<171.386 326.693> 286 73<166.904 328.868> 373 45<-166.009 -73.4674>
LayerCount: 3
Fore
SplineSet
219 -249 m 0xf3c0
 134 -249 19 -225 19 -143 c 0xf4c0
 19 -74 103 -45 103 -42 c 0
 103 -38 25 -23 25 61 c 0
 25 115 61 134 91 144 c 0
 97 146 104 146 104 148 c 0
 104 150 100 152 95 157 c 0
 76 176 62 210 62 243 c 0
 62 338 124 391 214 391 c 0xebc0
 254 391 287 373 307 356 c 0
 316 348 330 329 332 329 c 0
 337 329 341 338 347 343 c 0
 359 355 378 374 412 374 c 0
 440 374 461 359 461 332 c 0
 461 312 447 300 432 300 c 0
 399 300 400 340 382 340 c 0
 376 340 367 335 353 321 c 0
 346 314 346 307 347 304 c 0
 351 295 359 266 359 246 c 0
 359 170 305 102 216 102 c 0
 194 102 168 110 149 120 c 0
 139 126 130 129 120 129 c 0
 116 129 111 129 106 127 c 0
 83 121 56 107 56 76 c 0
 56 18 148 28 231 24 c 0
 317 20 418 0 418 -101 c 0
 418 -210 316 -249 219 -249 c 0xf3c0
220 -219 m 0
 283 -219 373 -182 373 -112 c 0
 373 -60 292 -40 223 -40 c 0
 149 -40 79 -52 79 -125 c 0
 79 -196 141 -219 220 -219 c 0
214 359 m 0xe9c0
 155 359 137 298 137 244 c 0
 137 168 151 127 213 127 c 0
 277 127 286 187 286 248 c 0
 286 300 275 359 214 359 c 0xe9c0
EndSplineSet
EndChar

StartChar: h
Encoding: 104 104 8
Width: 529
VWidth: 0
Flags: HW
HStem: -3 33<23.0256 95.1819 176.085 237.998 295.045 362.578 444.51 508.941> 349 36<268.105 355.93> 551 34<19.0015 95.9137>
VStem: 96 80<30.0725 271.378 284.012 551.114> 364 80<30.3869 343.885>
LayerCount: 3
Fore
SplineSet
341 385 m 0
 398 385 440 368 440 306 c 2
 440 47 l 2
 440 37 441 29 448 29 c 0
 474 29 488 31 493 31 c 0
 507 31 509 25 509 12 c 0
 509 -3 500 -3 492 -3 c 0
 476 -3 432 0 402 0 c 0
 376 0 317 -3 306 -3 c 0
 300 -3 295 -1 295 12 c 0
 295 20 297 31 307 31 c 0
 317 31 321 29 349 29 c 0
 365 29 365 40 365 56 c 2
 365 308 l 2
 365 332 345 349 318 349 c 0
 251 349 182 264 176 236 c 0
 174 227 174 91 174 57 c 0
 174 38 174 29 187 29 c 0
 207 29 218 31 224 31 c 0
 233 31 235 23 235 14 c 0
 235 2 235 -3 222 -3 c 0
 212 -3 167 0 132 0 c 0
 96 0 51 -3 36 -3 c 0
 27 -3 23 1 23 14 c 0
 23 24 27 31 36 31 c 0
 44 31 49 29 79 29 c 0
 91 29 95 33 96 49 c 0
 100 111 100 426 100 538 c 0
 100 548 100 553 86 553 c 0
 48 553 40 552 30 552 c 0
 21 552 19 560 19 569 c 0
 19 576 20 587 32 587 c 0
 41 587 54 584 141 584 c 2
 175 584 l 2
 182 584 182 573 182 569 c 0
 182 561 172 401 172 307 c 0
 172 302 171 287 173 287 c 1
 173 287 239 385 341 385 c 0
EndSplineSet
EndChar

StartChar: i
Encoding: 105 105 9
Width: 280
VWidth: 0
Flags: HW
HStem: -3 33<22.0076 106.236 188.208 259.997> 344 30<19.0587 107.303> 480 100<101.438 184.562>
VStem: 93 100<488.438 571.562> 108 80<30.5756 344>
LayerCount: 3
Fore
SplineSet
93 530 m 0xf0
 93 558 115 580 143 580 c 0
 171 580 193 558 193 530 c 0
 193 502 171 480 143 480 c 0
 115 480 93 502 93 530 c 0xf0
187 52 m 2xe8
 187 30 188 29 201 29 c 0
 232 29 238 31 248 31 c 0
 255 31 258 24 258 14 c 0
 258 4 257 -3 242 -3 c 0
 234 -3 194 0 148 0 c 0
 78 0 46 -3 38 -3 c 0
 22 -3 22 5 22 12 c 0
 22 18 22 31 35 31 c 0
 45 31 60 29 93 29 c 0
 102 29 108 32 108 45 c 2
 108 328 l 2
 108 341 108 345 92 345 c 0
 48 345 40 344 30 344 c 0
 23 344 22 354 22 362 c 0
 22 371 25 377 32 377 c 0
 37 377 89 374 152 374 c 2
 177 374 l 2
 184 374 189 373 189 365 c 0
 189 351 187 223 187 165 c 2
 187 52 l 2xe8
EndSplineSet
EndChar

StartChar: j
Encoding: 106 106 10
Width: 230
VWidth: 0
Flags: HW
HStem: 344 30<22.1925 122.675> 472 105<114.609 199.391>
VStem: 104 106<482.609 566.752> 125 80<-131.78 343.353>
LayerCount: 3
Fore
SplineSet
104 525 m 0xe0
 104 554 128 577 157 577 c 0
 186 577 210 554 210 525 c 0
 210 496 186 472 157 472 c 0
 128 472 104 496 104 525 c 0xe0
125 313 m 2xd0
 125 333 118 344 95 344 c 2
 33 344 l 2
 26 344 22 354 22 362 c 0
 22 372 24 376 31 376 c 0
 58 376 104 374 154 374 c 2
 200 374 l 2
 205 374 208 369 208 365 c 0
 208 355 205 292 205 260 c 2
 205 -70 l 2
 205 -100 205 -99 194 -117 c 0
 162 -169 73 -229 46 -229 c 0
 33 -229 19 -212 19 -197 c 0
 19 -192 22 -190 31 -186 c 0
 76 -162 125 -141 125 -65 c 2
 125 313 l 2xd0
EndSplineSet
EndChar

StartChar: k
Encoding: 107 107 11
Width: 475
VWidth: 0
Flags: HW
HStem: -3 37<170.666 236.762> -3 33<19.0592 92.7821 396.129 454.895> 192 18<171.023 198.33> 338 32<232.516 279.996 323.473 432.407> 347 26<222.028 278.168> 556 33<22.0266 95.7772>
VStem: 93 77<34.2388 191.656 209.954 453.241> 96 84<331.37 555.95>
DStem2: 234 252 266 251 0.56706 0.823676<-7.6186 87.7056> 392 51 296 63 0.60368 -0.797227<-231.191 -43.2548>
LayerCount: 3
Fore
SplineSet
325 370 m 0x36
 356 370 392 373 412 373 c 0x2e
 425 373 433 373 433 361 c 0
 433 342 423 337 403 337 c 2
 368 337 l 2
 349 337 333 336 323 326 c 0
 297 298 283 276 266 251 c 0
 255 236 254 233 261 224 c 2
 392 51 l 2
 407 31 418 29 444 26 c 0
 454 25 455 20 455 9 c 0
 455 2 453 -3 443 -3 c 0
 416 -3 385 0 359 0 c 0
 337 0 296 -3 275 -3 c 0x76
 265 -3 262 0 262 14 c 0
 262 37 305 20 305 39 c 0
 305 47 301 56 296 63 c 2
 213 177 l 2
 204 189 200 192 195 192 c 0
 191 192 186 190 179 188 c 0
 170 185 170 184 170 171 c 2
 170 71 l 2
 170 50 171 39 179 34 c 0
 200 21 237 37 237 13 c 0
 237 -3 229 -3 225 -3 c 0xa6
 200 -3 162 0 133 0 c 0
 99 0 65 -3 32 -3 c 0
 24 -3 19 3 19 11 c 0
 19 24 22 30 37 30 c 2
 67 30 l 2
 93 30 93 33 93 59 c 2x66
 96 531 l 2
 96 552 94 556 70 556 c 2
 33 556 l 2
 25 556 22 560 22 574 c 0
 22 586 26 589 36 589 c 0
 65 589 130 588 172 588 c 0
 179 588 180 582 180 578 c 0x65
 180 550 170 252 170 215 c 0
 170 209 173 209 178 210 c 0
 201 215 225 239 234 252 c 0
 247 270 257 287 276 315 c 0
 279 319 280 323 280 327 c 0
 280 335 274 341 265 342 c 0
 254 344 243 345 232 347 c 0
 222 349 222 357 222 362 c 0
 222 369 225 373 233 373 c 0x6e
 236 373 265 370 325 370 c 0x36
EndSplineSet
EndChar

StartChar: l
Encoding: 108 108 12
Width: 287
VWidth: 0
Flags: HW
HStem: -3 33<19.008 102.681 184.75 266.98> 555 35<22.0061 102.985>
VStem: 103 80<30.0927 556>
LayerCount: 3
Fore
SplineSet
183 68 m 2
 183 32 191 30 210 30 c 2
 253 30 l 2
 264 30 267 25 267 12 c 0
 267 -1 262 -3 251 -3 c 0
 233 -3 173 0 144 0 c 0
 112 0 53 -3 27 -3 c 0
 20 -3 19 6 19 12 c 0
 19 24 20 30 36 30 c 2
 79 30 l 2
 94 30 103 32 103 52 c 2
 103 535 l 2
 103 555 101 557 81 557 c 2
 32 556 l 2
 23 556 22 563 22 573 c 0
 22 581 24 590 36 590 c 2
 182 589 l 2
 188 589 188 577 188 573 c 0
 188 558 183 283 183 142 c 2
 183 68 l 2
EndSplineSet
EndChar

StartChar: m
Encoding: 109 109 13
Width: 784
VWidth: 0
Flags: HW
HStem: -6.8 28.05<38.3228 98.7837> -3.4 34<325.5 366.697> -3.4 30.6<189.689 256.154 305.558 335.7 458.371 523.446 570.689 638.116 722.671 790.09> 345.1 34.85<28.8551 109.37> 356.15 39.1<277.89 367.29 544.358 629.184>
VStem: 112.15 75.65<31.5199 282.679 292.36 345.312> 112.15 68<291.55 345.312> 376.5 73.1<36.5024 273.516 297.5 344.588> 644.25 74.8<33.363 342.131>
LayerCount: 3
Fore
SplineSet
493 30 m 2
 499 30 503 24 503 16 c 0
 503 0 502 -3 483 -3 c 0
 473 -3 424 0 398 0 c 0
 347 0 327 -3 301 -3 c 0
 294 -3 290 0 290 13 c 0
 290 27 295 30 313 30 c 0
 338 30 357 30 357 62 c 2
 357 287 l 2
 357 326 350 347 312 347 c 0
 250 347 179 291 179 229 c 2
 179 58 l 2
 179 33 191 30 205 30 c 2
 225 30 l 2
 234 30 240 26 240 12 c 0
 240 2 240 -3 225 -3 c 0
 198 -3 183 0 132 0 c 0
 77 0 69 -3 46 -3 c 0
 33 -3 28 1 28 15 c 0
 28 29 34 30 48 30 c 2
 57 30 l 2
 85 30 99 31 99 63 c 2
 99 304 l 2
 99 323 98 344 78 344 c 2
 37 344 l 2
 19 344 19 352 19 360 c 0
 19 374 23 376 36 376 c 0
 53 376 127 374 162 374 c 0
 175 374 176 372 176 362 c 0
 176 351 174 328 174 314 c 0
 174 306 173 300 175 300 c 0
 178 300 187 312 192 318 c 0
 219 350 272 383 333 383 c 0
 442 383 431.279296875 288 433 288 c 0
 435 288 443 299 448 306 c 0
 479 346 531 383 608 383 c 0
 655 383 699 370 699 286 c 2
 699 64 l 2
 699 41 710 30 738 30 c 2
 754 30 l 2
 760 30 764 24 764 16 c 0
 764 0 760 -3 746 -3 c 0
 736 -3 684 0 658 0 c 0
 607 0 589 -3 563 -3 c 0
 556 -3 552 0 552 13 c 0
 552 27 557 30 575 30 c 0
 600 30 619 30 619 62 c 2
 619 287 l 2
 619 320 616 347 578 347 c 0
 502 347 437 269 437 214 c 2
 437 64 l 2
 437 41 447 30 475 30 c 2
 493 30 l 2
EndSplineSet
EndChar

StartChar: n
Encoding: 110 110 14
Width: 534
VWidth: 0
Flags: HW
HStem: -3 33<19.0398 96.99 180.448 245.991 298.004 362.757 448.87 513.984> 344 32<19.0029 96.918> 354 35<271.079 355.66>
VStem: 99 80<30.9047 270.474 304.897 344> 365 80<32.4027 347.111>
LayerCount: 3
Fore
SplineSet
504 31 m 0xb8
 510 31 514 24 514 16 c 0
 514 0 513 -3 494 -3 c 0
 484 -3 465 0 406 0 c 0
 346 0 317 -3 309 -3 c 0
 302 -3 298 0 298 13 c 0
 298 27 302 31 311 31 c 0
 317 31 332 29 353 29 c 0
 362 29 365 31 365 62 c 2
 365 287 l 2
 365 326 358 353 320 353 c 0xb8
 245 353 175 259 175 217 c 0
 175 112 176 78 177 51 c 0
 178 30 179 29 193 29 c 0
 215 29 223 31 232 31 c 0
 242 31 246 28 246 14 c 0
 246 4 245 -3 231 -3 c 0
 204 -3 186 0 135 0 c 0
 81 0 60 -3 37 -3 c 0
 24 -3 19 1 19 15 c 0
 19 29 25 31 39 31 c 0
 49 31 65 29 91 29 c 0
 95 29 101 30 101 44 c 0
 101 131 99 218 99 305 c 0
 99 324 98 345 78 345 c 0
 51 345 42 344 32 344 c 0
 19 344 19 353 19 361 c 0
 19 375 23 377 36 377 c 0xd8
 53 377 122 374 157 374 c 0
 170 374 171 371 171 361 c 0
 171 350 169 325 169 306 c 0
 169 285 166 278 175 292 c 0
 191 316 247 387 346 387 c 0
 393 387 445 370 445 286 c 0
 445 270 442 116 442 61 c 0
 442 40 442 29 454 29 c 0
 487 29 498 31 504 31 c 0xb8
  Spiro
    504 31 o
    509.255 28.8929 o
    512.743 23.4378 o
    514 16 o
    513.04 3.97141 o
    507.621 -1.63274 o
    494 -3 o
    479.871 -2.22356 o
    452.779 -0.776445 o
    406 0 o
    356.003 -0.776445 o
    324.347 -2.22356 o
    309 -3 o
    303.042 -1.74352 o
    299.294 3.08119 o
    298 13 o
    299.368 23.8809 o
    303.635 29.4478 o
    311 31 o
    319.877 30.4824 o
    334.128 29.5176 o
    353 29 o
    360.106 30.6623 o
    363.891 39.6813 o
    365 62 [
    365 287 ]
    361.785 321.415 o
    348.536 344.572 o
    320 353 o
    249.139 327.121 o
    195.886 270.865 o
    175 217 o
    175.296 133.361 o
    176.038 82.6649 o
    177 51 o
    178.479 35.9727 o
    182.859 30.0343 o
    193 29 o
    210.875 29.5176 o
    222.788 30.4824 o
    232 31 o
    240.068 29.7066 o
    244.595 24.6221 o
    246 14 o
    245.224 5.15571 o
    241.104 -0.819035 o
    231 -3 o
    205.47 -2.22356 o
    176.522 -0.776445 o
    135 0 o
    90.7396 -0.776445 o
    60.6041 -2.22356 o
    37 -3 o
    26.5636 -1.44778 o
    20.7741 4.11911 o
    19 15 o
    21.0699 25.3633 o
    27.6015 29.9654 o
    39 31 o
    51.1337 30.4824 o
    68.205 29.5176 o
    91 29 o
    95.3659 29.7758 o
    99.2994 33.8956 o
    101 44 o
    100.482 130.913 o
    99.5176 218.087 o
    99 305 o
    98.0027 323.797 o
    92.324 338.863 o
    78 345 o
    56.3134 344.741 o
    42.3589 344.259 o
    32 344 o
    22.8576 346.625 o
    19.48 353.045 o
    19 361 o
    20.5153 371.363 o
    25.8224 375.965 o
    36 377 o
    67.106 376.224 o
    113.9 374.776 o
    157 374 o
    166.401 372.854 o
    170.261 368.809 o
    171 361 o
    170.482 346.092 o
    169.518 326.238 o
    169 306 o
    168.556 289.937 o
    169.447 284.742 o
    175 292 o
    204.401 327.254 o
    261.293 367.738 o
    346 387 o
    392.512 379.498 o
    429.806 349.474 o
    445 286 o
    444.224 232.859 o
    442.776 140.128 o
    442 61 o
    442.443 43.3846 o
    445.561 32.6224 o
    454 29 o
    480.276 29.5176 o
    495.715 30.4824 o
    0 0 z
  EndSpiro
EndSplineSet
EndChar

StartChar: o
Encoding: 111 111 15
Width: 409
VWidth: -4
Flags: HW
HStem: -12 38<147.974 264.97> 358 35<152.674 259.153>
VStem: 19 90<93.1739 290.652> 298 91<92.7842 288.537>
LayerCount: 3
Fore
SplineSet
387 191 m 0
 387 77.3279051933 316.401180046 -11.2915576331 200.497189256 -11.2915576331 c 0
 88.1892504631 -11.2915576331 21 84.8009605231 21 197 c 0
 21 306 96 391 208 391 c 0
 310 391 387 293 387 191 c 0
106 191 m 0
 106 82 114 24 209 24 c 0
 298 24 300 102 300 196 c 0
 300 289 291 360 199 360 c 0
 113 360 106 266 106 191 c 0
EndSplineSet
EndChar

StartChar: p
Encoding: 112 112 16
Width: 477
VWidth: 0
Flags: HW
HStem: -258 33<19.0262 92.7427 175.846 248.997> -14 32<223.651 328.192> 353 33<21.0072 94 224.128 320.801>
VStem: 94 77<-223.102 43.9855 72.1022 302.19 319.004 354> 367 90<78.9534 283.787>
LayerCount: 3
Fore
SplineSet
288 385 m 0
 400 385 456 287 456 181 c 0
 456 55 378 -16 289 -16 c 0
 200 -16 178 44 172 44 c 0
 170 44 171 24 171 20 c 2
 171 -200 l 2
 171 -206 171 -226 184 -226 c 0
 220 -226 232 -224 241 -224 c 0
 247 -224 249 -232 249 -242 c 0
 249 -248 245 -258 239 -258 c 0
 231 -258 174 -255 134 -255 c 0
 93 -255 44 -258 29 -258 c 0
 23 -258 19 -252 19 -244 c 0
 19 -237 19 -224 32 -224 c 0
 42 -224 49 -226 76 -226 c 0
 87 -226 92 -223 93 -200 c 0
 93 -193 98 -48 98 109 c 0
 98 188 96 270 94 340 c 8
 94 347 92 354 82 354 c 0
 73 354 38 353 28 353 c 0
 20 353 19 365 19 370 c 0
 19 378 19 388 30 388 c 0
 40 388 94 385 156 385 c 0
 167 385 168 375 168 363 c 2
 168 338 l 2
 168 328 168 319 169 319 c 0
 172 319 199 385 288 385 c 0
279 352 m 0
 214 352 168 294 168 189 c 2
 168 163 l 2
 168 43 239 13 271 13 c 0
 366 13 369 98 369 195 c 0
 369 268 347 352 279 352 c 0
EndSplineSet
EndChar

StartChar: q
Encoding: 113 113 17
Width: 468
VWidth: 0
Flags: HW
HStem: -254 30<229.003 297.341 376.996 447.996> -22 30<151.779 246.122> 346 31<156.364 250.813>
VStem: 19 87<76.5056 280.48> 304 71<-222.991 30.157> 313 67<66.4122 281.991 307.003 370>
LayerCount: 3
Fore
SplineSet
193 377 m 0xf8
 240 377 279 354 300 320 c 0
 303 315 307 307 310 307 c 0
 312 307 313 311 313 320 c 2
 313 338 l 2
 313 358 315 370 328 370 c 2
 366 370 l 2
 380 370 380 365 380 347 c 2xf4
 375 -191 l 2
 375 -206 377 -224 396 -224 c 2
 434 -224 l 2
 447 -224 448 -231 448 -239 c 0
 448 -253 443 -257 436 -257 c 0
 419 -257 386 -254 333 -254 c 0
 291 -254 263 -257 241 -257 c 0
 231 -257 229 -250 229 -240 c 0
 229 -233 229 -224 242 -224 c 2
 271 -224 l 2
 289 -224 298 -219 298 -202 c 0
 298 -129 301 -6 304 32 c 0
 304 39 305 43 297 33 c 0
 281 14 243 -22 185 -22 c 0
 80 -22 19 71 19 184 c 0
 19 292 92 377 193 377 c 0xf8
201 346 m 0
 130 346 106 258 106 182 c 0
 106 104 116 8 198 8 c 0
 240 8 275 34 292 68 c 0
 307 97 307 128 307 175 c 0
 307 207 305 242 296 269 c 0
 281 317 243 346 201 346 c 0
EndSplineSet
EndChar

StartChar: r
Encoding: 114 114 18
Width: 398
VWidth: 0
Flags: HW
HStem: 0 29<20.103 100.684 179.114 262.954> 341 29<21.0089 105.999> 351 33<250.852 330.5>
VStem: 101 78<29.0051 275.227 282.012 340.999> 290 86<289.642 350.25>
LayerCount: 3
Fore
SplineSet
177 282 m 0xd8
 180 282 218 384 309 384 c 0
 352 384 376 358 376 330 c 0
 376 311 363 284 333 284 c 0
 305 284 290 300 290 320 c 0
 290 341 292 342 292 347 c 0
 292 350 291 351 287 351 c 0xb8
 238 351 191 269 181 231 c 0
 178.259023282 220.584288472 177 206 177 190 c 0
 177 149 177 66 178 48 c 0
 179 32 183 29 194 29 c 0
 233 29 243 31 252 31 c 0
 263 31 263 19 263 11 c 0
 263 3 259 -3 253 -3 c 0
 233 -3 207 0 143 0 c 0
 74 0 43 -3 31 -3 c 0
 23 -3 20 3 20 12 c 0
 20 30 29 31 37 31 c 4
 47 31 56 29 86 29 c 0
 101 29 100 36 101 47 c 0
 103 79 106 314 106 330 c 0
 106 340 105 341 93 341 c 0
 48 341 42 339 32 339 c 0
 24 339 21 347 21 356 c 0
 21 362 23 373 28 373 c 0
 34 373 64 370 127 370 c 2
 163 370 l 2
 175 370 176 366 176 356 c 0
 176 351 175 327 175 309 c 0
 175 299 175 282 177 282 c 0xd8
EndSplineSet
EndChar

StartChar: s
Encoding: 115 115 19
Width: 301
VWidth: 0
Flags: HW
HStem: -15.219 31.2835<97.765 205.155> 365.256 27.056<107.905 196.768>
VStem: 20.9015 52.421<191.508 325.629> 237.349 50.73<45.9198 121.454> 246.65 20.292<279.9 305.735>
LayerCount: 3
Fore
SplineSet
156 353 m 0
 109 353 73 323 73 287 c 0
 73 249 106 236 155 221 c 0
 220 201 277 181 277 105 c 0
 277 27 213 -14 138 -14 c 0
 95 -14 53 0 24 19 c 0
 19 22 16 24 16 30 c 2
 16 96 l 2
 16 108 21 109 28 109 c 0
 40 109 44 97 48 89 c 0
 80 26 107 19 151 19 c 0
 185 19 229 45 229 85 c 0
 229 130 173 138 127 153 c 0
 76 170 20 190 20 255 c 0
 20 335 79 383 163 383 c 0xf0
 214 383 259 362 259 344 c 0
 259 334 262 296 262 286 c 0
 262 281 252 279 246 279 c 0
 242 279 237 279 236 282 c 0xe8
 220 312 203 353 156 353 c 0
EndSplineSet
EndChar

StartChar: t
Encoding: 116 116 20
Width: 331
VWidth: 10
Flags: HW
HStem: -14 43<193.018 264.812> 338 37<19.0029 105 185.002 282.995>
VStem: 105 80<35.7088 338 375 487.354> 275 36<40.7608 95.9099>
LayerCount: 3
Fore
SplineSet
306 79 m 0
 306 36 283 -13 207 -13 c 0
 154 -13 103 11 103 75 c 0
 103 97 108 297 108 325 c 0
 108 337 106 338 95 338 c 0
 75 338 43 335 33 335 c 0
 21 335 21 349 21 356 c 0
 21 370 25 375 35 375 c 0
 45 375 74 372 96 372 c 0
 107 372 108 374 108 392 c 0
 108 411 106 452 106 467 c 0
 106 481 113 485 124 487 c 0
 142 491 169 498 177 498 c 0
 185 498 191 496 191 486 c 0
 191 474 183 392 183 383 c 0
 183 376 186 372 198 372 c 0
 223 372 256 375 270 375 c 0
 276 375 281 370 281 355 c 0
 281 338 276 335 272 335 c 0
 261 335 223 338 199 338 c 0
 185 338 183 335 183 321 c 2
 183 86 l 2
 183 64 187 29 225 29 c 0
 263 29 273 54 275 82 c 0
 275.683772234 88.1539501058 279.640625 90.6328125 284.631835938 90.6328125 c 0
 295 90.6328125 306 87.7471123489 306 79 c 0
EndSplineSet
EndChar

StartChar: u
Encoding: 117 117 21
Width: 533
VWidth: 0
Flags: HW
HStem: -10 42<181.432 273.519 442.811 512.787> 352 33<19.0715 91.1016 281.015 357.186>
VStem: 93 80<36.6446 351.987> 360 80<29.9648 92.9941 103.678 351.934>
LayerCount: 3
Fore
SplineSet
215 32 m 0
 265 32 360 104 360 147 c 2
 360 312 l 2
 360 329 358 352 337 352 c 0
 327 352 298 351 293 351 c 0
 286 351 281 360 281 368 c 0
 281 375 285 385 292 385 c 0
 312 385 362 382 428 382 c 0
 433 382 441 382 441 365 c 0
 441 328 440 174 440 82 c 4
 440 50 441 29 471 29 c 6
 500 29 l 6
 511 29 513 24 513 17 c 4
 513 7 512 -4 500 -4 c 4
 469 -4 408 -1 377 -1 c 4
 371 -1 366 3 366 10 c 6
 366 61 l 6
 366 85 366 93 364 93 c 0
 363 93 353 82 345 71 c 0
 319 36 261 -10 199 -10 c 0
 103 -10 93 36 93 90 c 2
 93 317 l 2
 93 334 90 352 72 352 c 0
 66 352 48 351 42 351 c 0
 25 351 19 355 19 371 c 0
 19 385 28 385 33 385 c 0
 41 385 103 382 160 382 c 0
 174 382 175 377 175 366 c 0
 174 283 173 202 173 118 c 0
 173 58 180 32 215 32 c 0
EndSplineSet
EndChar

StartChar: v
Encoding: 118 118 22
Width: 475
VWidth: 15
Flags: HW
HStem: -19 21G<235.5 244> 340 33<19.0459 79.6719 173.701 228.855 284.063 334.359 391.438 454.994>
DStem2: 178 300 86 311 0.383966 -0.923347<-18.3224 207.246> 268 123 264 4 0.363345 0.931655<-14.6175 202.17>
LayerCount: 3
Fore
SplineSet
239 -19 m 0
 232 -19 223 -19 212 8 c 2
 86 311 l 2
 78 330 71 340 32 340 c 0
 21 340 19 344 19 360 c 0
 19 372 26 373 38 373 c 0
 51 373 90 370 125 370 c 0
 147 370 196 373 216 373 c 0
 225 373 229 371 229 359 c 0
 229 351 225 340 217 340 c 0
 188 340 173 334 173 318 c 0
 173 313 175 307 178 300 c 2
 250 129 l 2
 255 117 258 110 261 110 c 0
 263 110 265 115 268 123 c 2
 327 278 l 2
 331 290 336 303 336 314 c 0
 336 328 328 340 303 340 c 0
 286 340 284 345 284 360 c 0
 284 369 287 373 297 373 c 0
 302 373 336 370 365 370 c 0
 378 370 427 373 442 373 c 0
 450 373 455 369 455 357 c 0
 455 340 447 340 437 340 c 0
 410 340 394 338 381 304 c 2
 264 4 l 2
 255 -18 249 -19 239 -19 c 0
EndSplineSet
EndChar

StartChar: w
Encoding: 119 119 23
Width: 728
VWidth: 15
Flags: HW
HStem: -19 21G<233.5 242 507.5 516> 308 61<357.727 378.908> 340 33<19.0459 77.1406 172.275 228.855 277.063 331.368 445.131 496.952 548.063 602.859 651.344 707.995>
DStem2: 177 300 83 311 0.396842 -0.917887<-20.1249 193.544> 324 286 355 279 0.332641 0.943054<-173.011 32.438> 450 300 382 279 0.370208 -0.928949<-21.0974 193.307> 602 296 642 304 0.349754 0.936842<-191.715 16.7551>
LayerCount: 3
Fore
SplineSet
237 -19 m 0xc0
 230 -19 222 -18 211 8 c 2
 83 311 l 2
 76 327 71 341 61 341 c 0
 57 341 37 340 32 340 c 0
 21 340 19 344 19 360 c 0
 19 372 26 373 38 373 c 0
 51 373 74 370 123 370 c 0
 170 370 191 373 211 373 c 0
 220 373 222 371 222 359 c 0
 222 350 220 339 211 339 c 0
 207 339 178 341 175 341 c 0
 166 341 163 337 163 331 c 0
 163 324 167 313 172 300 c 2
 248 122 l 2
 253 110 255 103 257 103 c 0
 259 103 261 109 266 123 c 2
 324 286 l 2
 327 296 336 319 336 332 c 0
 336 338 334 341 330 341 c 0
 326 341 296 339 291 339 c 0
 277 339 277 345 277 360 c 0
 277 369 280 373 290 373 c 0xa0
 295 373 327 369 383 369 c 0xc0
 440 369 466 373 484 373 c 0
 493 373 497 371 497 359 c 0
 497 351 496 340 485 340 c 0
 474 340 466 341 459 341 c 0
 447 341 441 339 441 330 c 0
 441 324 444 315 450 300 c 2
 523 121 l 2
 530 104 532 104 536 116 c 2
 602 296 l 2
 605 305 610 318 610 327 c 0
 610 335 607 341 597 341 c 0
 592 341 572 339 565 339 c 0
 548 339 546 345 546 360 c 0
 546 369 549 373 559 373 c 0
 564 373 591 370 633 370 c 0
 666 370 681 373 696 373 c 0
 704 373 708 369 708 357 c 0
 708 340 701 340 691 340 c 0xa0
 684 340 676 341 671 341 c 0
 657 341 652 329 642 304 c 2
 530 4 l 2
 522 -18 521 -19 511 -19 c 0
 504 -19 499 -19 488 8 c 2
 380 279 l 2
 372 298 371 308 368 308 c 0
 365 308 362 299 355 279 c 2
 258 4 l 2
 252 -12 247 -19 237 -19 c 0xc0
EndSplineSet
EndChar

StartChar: x
Encoding: 120 120 24
Width: 469
VWidth: 0
Flags: HW
HStem: -3 33<24.115 83.4901 136.007 179.983 236.004 290.985 391.38 448.988> 340 33<19.014 87.8937 192.003 221.844 294.004 317.845 368.932 440.961>
DStem2: 203 305 98 311 0.592875 -0.805295<-26.3478 79.8655 136.689 263.813> 104 68 143 59 0.653954 0.756535<1.4349 133.394 226.485 340.598>
LayerCount: 3
Fore
SplineSet
250 30 m 0
 271 30 291 30 291 42 c 0
 291 46 289 51 285 57 c 2
 224 147 l 2
 217 157 217 154 210 145 c 2
 143 59 l 2
 138 52 136 47 136 42 c 0
 136 31 146 30 156 30 c 2
 161 30 l 2
 179 30 180 22 180 12 c 0
 180 -2 174 -3 166 -3 c 0
 157 -3 121 0 109 0 c 0
 85 0 49 -3 39 -3 c 0
 29 -3 24 0 24 11 c 0
 24 29 34 30 45 30 c 2
 51 30 l 2
 69 30 81 42 104 68 c 2
 193 169 l 2
 201 178 196 182 189 191 c 2
 98 311 l 2
 76 340 71 340 30 340 c 0
 19 340 19 350 19 359 c 0
 19 365 21 373 33 373 c 0
 45 373 93 370 123 370 c 0
 151 370 194 373 205 373 c 0
 219 373 222 371 222 359 c 0
 222 351 218 340 206 340 c 0
 196 340 192 336 192 330 c 0
 192 322 199 312 203 305 c 2
 244 241 l 2
 249 232 250 231 256 239 c 2
 308 304 l 2
 312 309 322 322 322 331 c 0
 322 336 319 340 309 340 c 0
 300 340 294 341 294 355 c 0
 294 363 294 373 304 373 c 0
 317 373 335 370 366 370 c 0
 395 370 419 373 427 373 c 0
 441 373 441 366 441 358 c 0
 441 340 429 340 412 340 c 0
 384 340 373 330 350 303 c 2
 279 220 l 2
 271 211 266 207 275 195 c 2
 391 42 l 2
 399 32 414 30 431 30 c 0
 445 30 449 22 449 14 c 0
 449 0 441 -3 432 -3 c 0
 410 -3 379 0 336 0 c 0
 293 0 254 -3 247 -3 c 0
 239 -3 236 2 236 14 c 0
 236 24 242 30 250 30 c 0
EndSplineSet
EndChar

StartChar: y
Encoding: 121 121 25
Width: 510
VWidth: 0
Flags: HW
HStem: -256 48<85.5 166.157> 340 33<22.0117 93.4978 198.89 257.916 318.053 369.828 425.312 489.974>
VStem: 19 87<-207.946 -150.401>
DStem2: 203 298 157 196 0.422128 -0.906536<-19.1204 212.528> 168 -184 253 -94 0.374618 0.927179<-29.6115 197 312.788 537.434>
LayerCount: 3
Fore
SplineSet
223 51 m 2
 157 196 l 2
 137 240 125 274 101 313 c 0
 88 333 79 340 65 340 c 2
 33 340 l 2
 25 340 22 350 22 357 c 0
 22 372 26 373 33 373 c 0
 47 373 117 370 144 370 c 0
 175 370 231 373 249 373 c 0
 258 373 258 364 258 350 c 0
 258 340 245 340 237 340 c 0
 210 340 198 332 198 317 c 0
 198 312 200 305 203 298 c 2
 278 126 l 2
 284 112 287 104 290 104 c 0
 293 104 296 111 301 124 c 2
 366 286 l 2
 370 297 371 306 371 314 c 0
 371 330 364 340 334 340 c 0
 319 340 318 347 318 360 c 0
 318 368 319 373 331 373 c 0
 336 373 390 370 405 370 c 0
 419 370 476 373 480 373 c 0
 486 373 490 370 490 359 c 0
 490 347 489 340 472 340 c 0
 446 340 429 339 413 302 c 2
 325 88 l 1
 253 -94 l 2
 222 -170 191 -256 105 -256 c 0
 66 -256 19 -229 19 -191 c 0
 19 -160 42 -144 63 -144 c 0
 85 -144 104 -161 106 -191 c 0
 107 -204 119 -208 128 -208 c 0
 144 -208 163 -194 168 -184 c 0
 200 -126 243 -17 243 -1 c 0
 243 5 233 29 223 51 c 2
EndSplineSet
EndChar

StartChar: z
Encoding: 122 122 26
Width: 374
VWidth: 0
Flags: HW
HStem: 0 30<125.004 286.856> 340 30<84.387 239.997>
VStem: 26 32<258.026 311.729> 325 29<71.0648 106.985>
DStem2: 22 27 134 52 0.570905 0.821016<65.4903 377.212>
LayerCount: 3
Fore
SplineSet
40 258 m 0
 27 258 26 262 26 266 c 0
 26 274 28 306 32 355 c 0
 33 368 33 370 48 370 c 2
 322 370 l 2
 340 370 346 370 346 363 c 0
 346 361 346 357 344 354 c 2
 134 52 l 2
 129 44 125 38 125 35 c 0
 125 31 130 30 143 30 c 2
 223 30 l 2
 300 30 310 68 325 100 c 0
 328 107 332 107 343 107 c 0
 354 107 354 102 354 95 c 0
 354 82 352 54 351 13 c 0
 351 1 349 0 337 0 c 2
 33 0 l 2
 20 0 19 6 19 12 c 2
 19 19 l 2
 19 22 21 26 22 27 c 0
 98 125 167 229 232 322 c 0
 236 327 240 332 240 335 c 0
 240 338 236 340 224 340 c 2
 122 340 l 2
 84 340 71 314 58 271 c 0
 55 260 56 258 40 258 c 0
EndSplineSet
EndChar

StartChar: R
Encoding: 82 82 44
Width: 574
VWidth: 0
Flags: HW
HStem: -9 39<10.058 108.333 215.607 308.991> 419 38<12.5848 107.268> 434 38<305.698 391.5>
VStem: 114 90<346 412.134> 115 94<47.2827 324.887> 346 103<352.533 433.465>
LayerCount: 3
Fore
SplineSet
200 531 m 2
 200 326 l 2
 200 312 200 309 213 309 c 2
 241 309 l 1
 293 313 364 328 364 433 c 0
 364 526 299 545 257 545 c 0
 235 545 200 544 200 531 c 2
37 575 m 0
 63 575 109 571 151 571 c 0
 166.078125 571 251.569335938 575 292 575 c 0
 333 575 369.033203125 571.591796875 399 555.462890625 c 0
 440.756835938 532.98828125 468 492.828125 468 444 c 0
 468 345 391 310 344 298 c 0
 331 294 323 293 323 291 c 0
 323 289 330 288 344 285 c 0
 373 279 412 269 434 256 c 0
 448 247 457 238 461 222 c 0
 473 166 473 133 480 76 c 0
 482 60 489 34 517 34 c 2
 539 34 l 2
 551 34 554 26 554 17 c 0
 554 10 553 0 543 0 c 2
 454 0 l 2
 422 0 384 19 384 52 c 0
 382 261 321 284 256 284 c 2
 213 284 l 2
 201 284 200 283 200 269 c 2
 200 90 l 2
 200 68 205 34 228 34 c 2
 265 34 l 2
 281 34 281 27 281 16 c 0
 281 9 281 -3 266 -3 c 0
 249 -3 201 0 152 0 c 0
 104 0 55 -3 35 -3 c 0
 19 -3 19 7 19 17 c 0
 19 26 24 34 32 34 c 2
 62 34 l 2
 96 34 102 54 102 74 c 2
 102 526 l 2
 102 535 94 538 86 538 c 2
 45 538 l 2
 26 538 19 542 19 560 c 0
 19 571 27 575 37 575 c 0
EndSplineSet
EndChar

StartChar: zero
Encoding: 48 48 53
Width: 108
VWidth: 0
Flags: HW
HStem: 185 88<16.4399 91.56>
VStem: 10 88<191.44 266.56>
LayerCount: 3
Fore
SplineSet
10 229 m 0
 10 253 30 273 54 273 c 0
 78 273 98 253 98 229 c 0
 98 205 78 185 54 185 c 0
 30 185 10 205 10 229 c 0
EndSplineSet
EndChar

StartChar: one
Encoding: 49 49 54
Width: 108
VWidth: 0
Flags: HW
HStem: 185 88<16.4399 91.56>
VStem: 10 88<191.44 266.56>
LayerCount: 3
Fore
SplineSet
10 229 m 0
 10 253 30 273 54 273 c 0
 78 273 98 253 98 229 c 0
 98 205 78 185 54 185 c 0
 30 185 10 205 10 229 c 0
EndSplineSet
EndChar

StartChar: two
Encoding: 50 50 55
Width: 108
VWidth: 0
Flags: HW
HStem: 185 88<16.4399 91.56>
VStem: 10 88<191.44 266.56>
LayerCount: 3
Fore
SplineSet
10 229 m 0
 10 253 30 273 54 273 c 0
 78 273 98 253 98 229 c 0
 98 205 78 185 54 185 c 0
 30 185 10 205 10 229 c 0
EndSplineSet
EndChar

StartChar: three
Encoding: 51 51 56
Width: 108
VWidth: 0
Flags: HW
HStem: 185 88<16.4399 91.56>
VStem: 10 88<191.44 266.56>
LayerCount: 3
Fore
SplineSet
10 229 m 0
 10 253 30 273 54 273 c 0
 78 273 98 253 98 229 c 0
 98 205 78 185 54 185 c 0
 30 185 10 205 10 229 c 0
EndSplineSet
EndChar

StartChar: four
Encoding: 52 52 57
Width: 108
VWidth: 0
Flags: HW
HStem: 185 88<16.4399 91.56>
VStem: 10 88<191.44 266.56>
LayerCount: 3
Fore
SplineSet
10 229 m 0
 10 253 30 273 54 273 c 0
 78 273 98 253 98 229 c 0
 98 205 78 185 54 185 c 0
 30 185 10 205 10 229 c 0
EndSplineSet
EndChar

StartChar: five
Encoding: 53 53 58
Width: 108
VWidth: 0
Flags: HW
HStem: 185 88<16.4399 91.56>
VStem: 10 88<191.44 266.56>
LayerCount: 3
Fore
SplineSet
10 229 m 0
 10 253 30 273 54 273 c 0
 78 273 98 253 98 229 c 0
 98 205 78 185 54 185 c 0
 30 185 10 205 10 229 c 0
EndSplineSet
EndChar

StartChar: six
Encoding: 54 54 59
Width: 108
VWidth: 0
Flags: HW
HStem: 185 88<16.4399 91.56>
VStem: 10 88<191.44 266.56>
LayerCount: 3
Fore
SplineSet
10 229 m 0
 10 253 30 273 54 273 c 0
 78 273 98 253 98 229 c 0
 98 205 78 185 54 185 c 0
 30 185 10 205 10 229 c 0
EndSplineSet
EndChar

StartChar: seven
Encoding: 55 55 60
Width: 108
VWidth: 0
Flags: HW
HStem: 185 88<16.4399 91.56>
VStem: 10 88<191.44 266.56>
LayerCount: 3
Fore
SplineSet
10 229 m 0
 10 253 30 273 54 273 c 0
 78 273 98 253 98 229 c 0
 98 205 78 185 54 185 c 0
 30 185 10 205 10 229 c 0
EndSplineSet
EndChar

StartChar: eight
Encoding: 56 56 61
Width: 108
VWidth: 0
Flags: HW
HStem: 185 88<16.4399 91.56>
VStem: 10 88<191.44 266.56>
LayerCount: 3
Fore
SplineSet
10 229 m 0
 10 253 30 273 54 273 c 0
 78 273 98 253 98 229 c 0
 98 205 78 185 54 185 c 0
 30 185 10 205 10 229 c 0
EndSplineSet
EndChar

StartChar: nine
Encoding: 57 57 62
Width: 108
VWidth: 0
Flags: HW
HStem: 185 88<16.4399 91.56>
VStem: 10 88<191.44 266.56>
LayerCount: 3
Fore
SplineSet
10 229 m 0
 10 253 30 273 54 273 c 0
 78 273 98 253 98 229 c 0
 98 205 78 185 54 185 c 0
 30 185 10 205 10 229 c 0
EndSplineSet
EndChar

StartChar: period
Encoding: 46 46 63
Width: 126
VWidth: 0
Flags: HW
LayerCount: 3
Fore
SplineSet
10 33 m 0
 10 63 33 86 63 86 c 0
 93 86 116 63 116 33 c 0
 116 3 93 -20 63 -20 c 0
 33 -20 10 3 10 33 c 0
EndSplineSet
EndChar

StartChar: comma
Encoding: 44 44 64
Width: 230
VWidth: 0
Flags: HWO
LayerCount: 3
Fore
SplineSet
74 -9 m 0
 43 -9 28 15 28 38 c 0
 28 92 86 104 102 104 c 0
 158 104 197 53 197 -10 c 0
 197 -114 91 -195 75 -195 c 0
 64 -195 52 -189 52 -166 c 0
 52 -146 153 -113 153 -2 c 0
 153 16 146 28 134 28 c 0
 130 28 111 -9 74 -9 c 0
EndSplineSet
EndChar
